<svg width="130" height="130" viewBox="0 0 130 130" fill="none" xmlns="http://www.w3.org/2000/svg">
<path d="M16.25 43.3333C13.2708 43.3333 10.8333 40.8958 10.8333 37.9167C10.8333 34.9375 13.2708 32.5 16.25 32.5H30.0083C28.1125 35.75 27.0833 39.4875 27.0833 43.3333H16.25ZM27.0833 70.4167H10.8333C7.85417 70.4167 5.41667 67.9792 5.41667 65C5.41667 62.0208 7.85417 59.5833 10.8333 59.5833H27.0833V70.4167ZM5.41667 97.5C2.42667 97.5 0 95.0625 0 92.0833C0 89.1042 2.42667 86.6667 5.41667 86.6667H27.0833C27.0833 90.5125 28.1125 94.25 30.0083 97.5H5.41667ZM113.75 32.5H48.75C42.7375 32.5 37.9167 37.3208 37.9167 43.3333V86.6667C37.9167 92.6792 42.7375 97.5 48.75 97.5H113.75C119.762 97.5 124.583 92.6792 124.583 86.6667V43.3333C124.583 37.3208 119.762 32.5 113.75 32.5ZM113.75 65H48.75V48.75H113.75V65Z" fill="#497BFE"/>
</svg>
