<svg width="110" height="110" viewBox="0 0 110 110" fill="none" xmlns="http://www.w3.org/2000/svg">
<path d="M63.7954 13.915V5.95833H66.6921V0H42.9779V5.95833H45.87V13.9746C34.8081 16.1024 24.8332 22.0179 17.6605 30.7038C10.4878 39.3897 6.56544 50.3032 6.56792 61.5679C6.56792 88.3438 28.2792 110 55 110C81.7758 110 103.432 88.2887 103.432 61.5679C103.432 37.7988 86.3408 18.0904 63.7954 13.915ZM56.3338 86.4508V83.6687H53.4967V86.4508C40.8604 85.7267 30.7863 75.5425 30.1171 62.9063H32.8992V60.0646H30.1171C30.4946 53.9928 33.0805 48.2689 37.3873 43.9723C41.694 39.6756 47.424 37.1032 53.4967 36.74V39.5221H56.3383V36.74C62.4591 37.0659 68.2448 39.637 72.5887 43.9614C76.9325 48.2858 79.5296 54.0599 79.8829 60.1792H77.1008V63.0163H79.8829C79.5195 69.1323 76.9185 74.9009 72.5756 79.2226C68.2327 83.5444 62.4515 86.1172 56.3338 86.4508ZM66.6921 51.1042L64.9046 49.3213L55.8342 57.2275C55.3715 57.0508 54.8811 56.9576 54.3858 56.9525C53.1921 56.9706 52.0539 57.4604 51.2201 58.3149C50.3862 59.1693 49.9244 60.319 49.9354 61.5129C49.9354 64.02 51.9383 66.0779 54.3858 66.0779C56.8379 66.0779 58.8408 64.0154 58.8408 61.5129C58.8526 61.0386 58.7764 60.5662 58.6162 60.1196L66.6921 51.1042Z" fill="#497BFE"/>
</svg>
