<svg width="104" height="104" viewBox="0 0 104 104" fill="none" xmlns="http://www.w3.org/2000/svg">
<path d="M102.312 35.9727L92.8311 26.4916C92.0661 25.737 91.0462 25.2963 89.9724 25.2566C88.8986 25.2168 87.8489 25.5808 87.0303 26.2768C85.7664 27.3526 84.1444 27.9143 82.4859 27.8506C80.8274 27.787 79.2533 27.1025 78.0756 25.933C76.9067 24.7554 76.2226 23.1818 76.159 21.5237C76.0953 19.8657 76.6567 18.2442 77.7318 16.9805C78.4278 16.1618 78.7918 15.1121 78.752 14.0383C78.7123 12.9645 78.2716 11.9446 77.517 11.1797L68.0273 1.68789C67.2254 0.887471 66.1386 0.437927 65.0056 0.437927C63.8725 0.437927 62.7857 0.887471 61.9838 1.68789L46.8695 16.8C45.9364 17.7365 45.2327 18.8763 44.8135 20.1301C44.7319 20.3711 44.5958 20.5902 44.4158 20.7701C44.2359 20.9501 44.0168 21.0862 43.7758 21.1678C42.5215 21.5869 41.3815 22.2915 40.4457 23.226L1.68789 61.9838C0.887471 62.7857 0.437927 63.8725 0.437927 65.0056C0.437927 66.1386 0.887471 67.2254 1.68789 68.0273L11.1797 77.5084C11.9446 78.263 12.9645 78.7037 14.0383 78.7434C15.1121 78.7832 16.1618 78.4192 16.9805 77.7232C18.2414 76.6387 19.8655 76.0708 21.5275 76.1332C23.1894 76.1956 24.7664 76.8837 25.9424 78.0598C27.1184 79.2358 27.8066 80.8127 27.869 82.4747C27.9314 84.1367 27.3634 85.7608 26.2789 87.0217C25.5829 87.8403 25.2189 88.8901 25.2587 89.9638C25.2985 91.0376 25.7391 92.0575 26.4938 92.8225L35.9748 102.304C36.7768 103.104 37.8635 103.553 38.9966 103.553C40.1296 103.553 41.2164 103.104 42.0184 102.304L80.7762 63.5457C81.7101 62.6103 82.4146 61.4712 82.8344 60.2178C82.9156 59.9759 83.0518 59.7562 83.2322 59.5758C83.4126 59.3954 83.6324 59.2592 83.8742 59.1779C85.1274 58.7587 86.2664 58.0549 87.2022 57.1219L102.314 42.0076C103.112 41.2057 103.559 40.1206 103.559 38.9897C103.558 37.8587 103.11 36.774 102.312 35.9727ZM53.2482 29.6025C52.929 29.9218 52.55 30.1751 52.1329 30.3479C51.7158 30.5207 51.2688 30.6096 50.8173 30.6096C50.3658 30.6096 49.9187 30.5207 49.5016 30.3479C49.0845 30.1751 48.7055 29.9218 48.3863 29.6025L45.9135 27.1297C45.2845 26.4818 44.9357 25.6124 44.9425 24.7095C44.9493 23.8065 45.3112 22.9425 45.9498 22.3041C46.5885 21.6658 47.4526 21.3043 48.3556 21.2979C49.2585 21.2915 50.1278 21.6407 50.7754 22.2699L53.2482 24.7406C53.5675 25.0598 53.8208 25.4388 53.9936 25.8559C54.1664 26.273 54.2553 26.7201 54.2553 27.1716C54.2553 27.6231 54.1664 28.0701 53.9936 28.4872C53.8208 28.9043 53.5675 29.2833 53.2482 29.6025ZM62.7014 39.0557C62.0568 39.6998 61.1828 40.0617 60.2715 40.0617C59.3602 40.0617 58.4862 39.6998 57.8416 39.0557L55.4783 36.6924C55.1591 36.3731 54.9059 35.9942 54.7331 35.5771C54.5603 35.1599 54.4714 34.7129 54.4714 34.2614C54.4714 33.81 54.5603 33.3629 54.7331 32.9458C54.9059 32.5287 55.1591 32.1497 55.4783 31.8305C56.1231 31.1857 56.9975 30.8235 57.9093 30.8235C58.3607 30.8235 58.8078 30.9125 59.2249 31.0852C59.642 31.258 60.021 31.5112 60.3402 31.8305L62.7035 34.1938C63.0239 34.5129 63.2782 34.8922 63.4517 35.3098C63.6253 35.7275 63.7147 36.1752 63.7149 36.6275C63.7151 37.0797 63.6261 37.5276 63.4529 37.9454C63.2797 38.3631 63.0258 38.7426 62.7057 39.0621L62.7014 39.0557ZM72.1545 48.5088C71.8353 48.8281 71.4563 49.0813 71.0392 49.2541C70.6221 49.4269 70.175 49.5159 69.7235 49.5159C69.2721 49.5159 68.825 49.4269 68.4079 49.2541C67.9908 49.0813 67.6118 48.8281 67.2926 48.5088L64.9293 46.1455C64.3003 45.4976 63.9516 44.6282 63.9584 43.7253C63.9652 42.8223 64.327 41.9583 64.9656 41.3199C65.6043 40.6816 66.4685 40.3201 67.3714 40.3137C68.2744 40.3073 69.1436 40.6565 69.7912 41.2857L72.1545 43.649C72.4758 43.9677 72.731 44.3466 72.9055 44.7642C73.0799 45.1817 73.1703 45.6295 73.1713 46.082C73.1723 46.5346 73.0839 46.9828 72.9113 47.4011C72.7386 47.8194 72.4851 48.1995 72.1652 48.5195L72.1545 48.5088ZM81.7 58.0779C81.3808 58.3972 81.0018 58.6505 80.5847 58.8233C80.1676 58.9961 79.7205 59.085 79.269 59.085C78.8176 59.085 78.3705 58.9961 77.9534 58.8233C77.5363 58.6505 77.1573 58.3972 76.8381 58.0779L74.3803 55.6072C74.0543 55.289 73.7948 54.9091 73.617 54.4896C73.4391 54.0702 73.3464 53.6196 73.3442 53.164C73.342 52.7084 73.4304 52.257 73.6043 51.8358C73.7781 51.4147 74.034 51.0324 74.3569 50.711C74.6798 50.3897 75.0634 50.1357 75.4854 49.9639C75.9073 49.7921 76.3592 49.7059 76.8148 49.7103C77.2703 49.7146 77.7205 49.8096 78.1391 49.9895C78.5576 50.1694 78.9363 50.4307 79.2529 50.7582L81.7129 53.2268C82.032 53.5461 82.2851 53.9252 82.4578 54.3424C82.6304 54.7596 82.7191 55.2067 82.7189 55.6582C82.7187 56.1096 82.6296 56.5567 82.4566 56.9737C82.2836 57.3907 82.0302 57.7696 81.7107 58.0887L81.7 58.0779Z" fill="#497BFE"/>
</svg>
